<svg width="310" height="272" xmlns="http://www.w3.org/2000/svg"><g fill="#131723" fill-rule="nonzero" fill-opacity=".087"><path d="M249.923 206.76a198.278 198.278 0 00-2.965-15.46 245.607 245.607 0 00-3.767-14.165c-3.755-12.604-8.7-25.702-14.697-38.944a364.168 364.168 0 00-8.473-17.41 378.036 378.036 0 00-8.414-15.336 370.28 370.28 0 00-9.105-14.94 357.324 357.324 0 00-10.871-16.018c-8.486-11.804-17.382-22.633-26.448-32.18a235.221 235.221 0 00-10.408-10.329 193.965 193.965 0 00-11.94-10.301C116.835 1.079 93.561-5.106 77.287 4.267 61.014 13.643 54.744 36.85 59.62 69.621c.742 5.014 1.74 10.179 2.972 15.46a230.247 230.247 0 003.76 14.164c3.755 12.605 8.7 25.71 14.704 38.944a357.945 357.945 0 008.466 17.404 386.426 386.426 0 008.414 15.342 370.28 370.28 0 009.105 14.94 363.922 363.922 0 0010.871 16.024c8.486 11.804 17.382 22.626 26.448 32.174a235.844 235.844 0 0010.415 10.334 195.785 195.785 0 0011.933 10.296c9.561 7.576 18.751 13.202 27.36 16.812 20.413-5.151 39.262-14.23 55.692-26.38 2.294-10.547 2.378-23.47.163-38.377zm-14.639 36.01c-1.897 8.182-5.383 13.788-10.369 16.656-4.98 2.875-11.588 3.083-19.637.638-8.72-2.66-18.9-8.474-29.446-16.832a184.758 184.758 0 01-10.65-9.15 224.635 224.635 0 01-10.414-10.322c-5.931-6.263-11.797-13.119-17.52-20.474A329.723 329.723 0 01126 187.918a361.772 361.772 0 01-15.356-24.305 360.753 360.753 0 01-13.413-25.423 323.226 323.226 0 01-7.71-17.403c-3.526-8.624-6.543-17.124-9.014-25.378-1.433-4.812-2.691-9.534-3.74-14.158A179.855 179.855 0 0174.14 67.47c-1.981-13.287-1.936-24.994.117-33.858 1.897-8.182 5.39-13.788 10.37-16.656 2.69-1.548 5.852-2.329 9.456-2.329 3.076 0 6.478.566 10.18 1.697 8.72 2.654 18.9 8.475 29.445 16.826a178.1 178.1 0 0110.65 9.164 217.864 217.864 0 0110.409 10.308c5.937 6.263 11.803 13.119 17.532 20.48 3.819 4.911 7.58 10.042 11.249 15.369a365.834 365.834 0 0115.348 24.298 360.753 360.753 0 0113.413 25.423 325.6 325.6 0 017.71 17.41c3.526 8.624 6.544 17.118 9.014 25.37a225.461 225.461 0 013.747 14.16 183.138 183.138 0 012.62 13.78c1.983 13.287 1.938 24.994-.116 33.858z"/><path d="M262.055 90.377a200.754 200.754 0 00-14.906-5.17 241.71 241.71 0 00-14.176-3.83c-12.813-3.057-26.656-5.333-41.144-6.764a355.236 355.236 0 00-19.331-1.386 380.593 380.593 0 00-35.058 0c-6.55.293-13.008.761-19.337 1.386-14.488 1.43-28.325 3.707-41.138 6.764a242.466 242.466 0 00-14.176 3.83c-5.2 1.58-10.18 3.31-14.906 5.17C17.011 102.54 0 119.567 0 138.316c0 18.75 17.01 35.777 47.884 47.945a200.564 200.564 0 0014.899 5.171 236.954 236.954 0 0014.176 3.824c12.813 3.063 26.656 5.333 41.151 6.77a368.63 368.63 0 0019.337 1.386c5.775.266 11.627.396 17.526.396 5.898 0 11.744-.13 17.519-.396 6.55-.3 13.002-.761 19.337-1.386 14.488-1.43 28.338-3.707 41.151-6.77a237.18 237.18 0 0014.176-3.83 198.08 198.08 0 0014.899-5.165c30.88-12.168 47.884-29.194 47.884-47.945 0-18.75-17.005-35.777-47.884-47.939zm23.932 65.226c-6.661 6.21-16.802 12.097-29.323 17.033a181.967 181.967 0 01-13.276 4.624 222.084 222.084 0 01-14.156 3.837c-8.401 1.997-17.284 3.636-26.533 4.904a318.484 318.484 0 01-18.953 2.036 361.954 361.954 0 01-28.774 1.126 365.26 365.26 0 01-28.775-1.119 323.92 323.92 0 01-18.959-2.042c-9.248-1.269-18.131-2.907-26.533-4.904a222.084 222.084 0 01-14.155-3.837 182.07 182.07 0 01-13.277-4.624c-12.52-4.937-22.661-10.823-29.322-17.034-6.153-5.73-9.274-11.544-9.274-17.286 0-5.743 3.121-11.558 9.274-17.287 6.661-6.211 16.802-12.097 29.322-17.033a181.967 181.967 0 0113.277-4.624 222.084 222.084 0 0114.155-3.838c8.402-1.996 17.285-3.635 26.533-4.904a323.92 323.92 0 0118.96-2.042 365.26 365.26 0 0128.774-1.118c9.783 0 19.409.377 28.774 1.125a318.484 318.484 0 0118.953 2.036c9.249 1.269 18.132 2.907 26.533 4.904a222.084 222.084 0 0114.156 3.837 182.07 182.07 0 0113.276 4.624c12.52 4.937 22.662 10.822 29.323 17.034 6.152 5.73 9.274 11.544 9.274 17.286 0 5.742-3.122 11.556-9.274 17.286z"/><path d="M232.253 4.266c-16.274-9.372-39.548-3.187-65.546 17.41a195.935 195.935 0 00-11.933 10.302 235.504 235.504 0 00-10.415 10.335c-9.066 9.547-17.962 20.37-26.454 32.173a362.22 362.22 0 00-10.864 16.02 370.28 370.28 0 00-9.105 14.938 387.229 387.229 0 00-8.415 15.342 360.457 360.457 0 00-8.466 17.404c-6.002 13.241-10.949 26.34-14.703 38.944a236.944 236.944 0 00-3.767 14.171c-1.225 5.281-2.223 10.439-2.966 15.453-2.216 14.9-2.131 27.823.163 38.372 16.43 12.155 35.279 21.235 55.692 26.386 8.61-3.61 17.8-9.236 27.36-16.812a196.356 196.356 0 0011.94-10.296 235.221 235.221 0 0010.41-10.328c9.059-9.547 17.961-20.376 26.447-32.18a365.215 365.215 0 0010.871-16.026 370.28 370.28 0 009.105-14.938 374.98 374.98 0 008.415-15.336 364.17 364.17 0 008.472-17.41c5.996-13.236 10.943-26.34 14.697-38.945 1.427-4.8 2.685-9.528 3.76-14.165a195.28 195.28 0 002.973-15.46c4.873-32.77-1.396-55.976-17.67-65.354zm-3.219 91.143c-2.47 8.254-5.488 16.747-9.014 25.37a326.1 326.1 0 01-7.71 17.411 360.753 360.753 0 01-13.413 25.423 366.09 366.09 0 01-15.348 24.298 331.23 331.23 0 01-11.256 15.375c-5.722 7.355-11.588 14.21-17.525 20.473a221.63 221.63 0 01-10.408 10.315 180.063 180.063 0 01-10.65 9.157c-10.545 8.357-20.726 14.171-29.446 16.832-8.049 2.445-14.658 2.237-19.637-.638-4.98-2.868-8.473-8.474-10.37-16.656-2.052-8.864-2.098-20.571-.116-33.858a183.128 183.128 0 012.62-13.781 225.46 225.46 0 013.747-14.158c2.47-8.254 5.487-16.754 9.013-25.378a323.502 323.502 0 017.71-17.404 360.753 360.753 0 0113.414-25.423A361.772 361.772 0 01126 88.463a325.816 325.816 0 0111.242-15.362c5.73-7.362 11.595-14.216 17.525-20.48a221.653 221.653 0 0110.415-10.315 182.293 182.293 0 0110.65-9.157c10.545-8.35 20.726-14.171 29.445-16.825 3.702-1.132 7.104-1.698 10.18-1.698 3.605 0 6.772.781 9.457 2.329 4.986 2.868 8.473 8.474 10.37 16.656 2.052 8.865 2.098 20.571.117 33.858a179.855 179.855 0 01-2.627 13.781c-1.049 4.624-2.307 9.346-3.74 14.16z"/><ellipse cx="155.122" cy="137.989" rx="29.126" ry="29.065"/></g></svg>